<svg xmlns="http://www.w3.org/2000/svg" width="2152" height="2072" viewBox="0 0 2152 2072">
  <defs>
    <style>
      .cls-1 {
        fill: #0d4640;
        fill-rule: evenodd;
      }
    </style>
  </defs>
  <path id="Preenchimento_de_Cor_1" data-name="Preenchimento de Cor 1" class="cls-1" d="M1040.56,50.312C1534.72,41.7,1844.79,321.7,1985.42,667.677c87.73,215.862,88.51,526.7-2.22,741.283-118.57,280.43-334.32,483.52-639.49,577.53-72.83,22.44-150.77,20.89-236.77,35.41q-43.14-2.22-86.29-4.43l-104-8.85c-84.107-18.47-160.658-42.53-230.129-73.02C325.549,1777.13-27.629,1301.12,146.6,745.124,242.683,438.5,450.012,223.383,739.623,110.057c61.25-23.967,128.751-37.392,199.15-50.894Zm-19.91,55.319L927.709,116.7c-62.344,12.753-124.323,26.849-179.234,48.681C485.734,269.839,290.132,470.993,201.919,749.549,36.59,1271.62,351.571,1728.95,702.006,1882.49c94.621,41.46,281.279,110.1,435.914,84.09,77.68-13.07,148.24-18.24,214.64-39.83,270.14-87.86,470.55-279.83,577.54-531.07,94.58-222.11,86.72-519.356-6.64-734.642C1779.53,329.143,1498.73,104.136,1020.65,105.631Zm6.63,42.043c464.4-7.573,736.66,228.56,869.63,553.194,77.93,190.266,84.41,464.462,4.42,659.412-105.65,257.49-301.39,446.35-577.53,533.27-53.67,16.9-111.65,20.49-172.6,30.98-136.48,23.5-303.927-24.36-393.874-61.95-264.788-110.69-441.851-309.01-528.854-597.45-17.835-59.13-15.141-118.07-26.553-188.09-19.206-117.844,13.6-255.669,46.468-340.767C347.01,480.937,517,300.773,770.6,200.781c52.213-20.587,111.5-32.244,170.384-44.256ZM978.6,218.483L927.709,231.76c-47.454,27.246-77.9,114.829-35.4,172.6,44.987,61.157,166.775,54.965,190.295-22.128-18.78-3.323-38.28-13.5-50.89-8.851-26.52,61.073-124.555,18.394-106.213-59.745,7.11-30.288,51.155-66.26,90.723-39.83q7.74,9.957,15.49,19.915l46.47-13.276C1070.01,241.172,1026.15,218.757,978.6,218.483ZM1164.48,220.7c-35.71,17.809-94.99,67.118-37.62,110.639,26.39,20.018,71.5,19.565,95.15,42.042-0.57,14.455-3.34,16.225-8.85,24.341-30.29,8.836-60.47.548-68.6-26.553l-42.04,13.276v2.213c24.53,70.7,152.49,87.41,170.38,4.426,20.09-93.166-136.98-61.28-106.21-121.7,33.37-9.315,42.59,4.148,59.74,22.128q19.92-6.638,39.83-13.277v-8.851C1243.99,233.861,1224.44,219.352,1164.48,220.7Zm-88.51,254.469q-8.85,5.532-17.71,11.064l2.22,11.064h2.21c12.08-.621,31.62-1.857,39.83-6.639-2.9-7.582-2.25-9.1-8.85-13.276Zm-35.41,22.128q-51.99,21.019-104,42.043,1.106,4.425,2.212,8.851,52-17.7,104-35.4Q1041.675,505.039,1040.56,497.293Zm77.45,0q-3.315,19.913-6.64,39.83c8.04,1.424,6.7.892,11.06,4.425q-7.74,7.745-15.49,15.49h-4.42L1091.45,532.7q-12.165,3.319-24.34,6.639l-6.63,17.7-11.07-2.213q-3.315-7.745-6.64-15.489c8.37-5.3,8.18-10.33,2.22-17.7q-11.07,4.425-22.13,8.851c0.35,29.429,7.98,45.349,19.91,61.958,35.09,11.98,66.74,5.478,92.94-13.277,3.32-15.52,8.86-46.443,2.21-61.957C1133.46,507.219,1127.2,502.447,1118.01,497.293Zm-44.26,6.638q-3.315,3.32-6.64,6.638l2.22,15.49h15.49l6.63-2.213,2.22-6.638V503.931h-19.92Zm-50.89,95.149c-20.2,18.059-59.87,68.026-28.767,101.788C985.675,655.333,1027.05,629.11,1022.86,599.08Zm115.06,2.213q12.18,24.339,24.34,48.681,4.425,24.339,8.85,48.681V694.23C1189.72,664.538,1163.8,608.393,1137.92,601.293Zm-19.91,11.064c-16.27,11.3-48.84,9.461-73.02,6.638,1.21,38.554-19.77,66.468-11.07,104,31.52,10.709,71,15.233,99.58-2.213C1134.01,693.977,1127.44,634.858,1118.01,612.357ZM965.327,672.1c-16.518,26.145-53.915,40.387-79.66,57.532L759.538,813.72,697.581,880.1c-14.161,11.008-32.522,17.759-42.043,33.192-30.485,49.414-14.348,186.345-28.766,252.255-11.206,51.23-72.339,156.11-4.426,201.36-14.254-35.63-20.191-126.32,2.213-159.32,6.845-10.08,21.705-9.02,26.553-22.12,10.871-29.38,5.64-59.53,19.915-81.88h11.064q5.532,6.645,11.064,13.28v11.06c-17.915,8.77-20.56,16.6-26.553,37.62q3.318,7.74,6.638,15.49c18.435,4.91,32.651,4.62,46.468-4.43,27.322-116.55,46.946-199.625,108.427-276.592l101.787-95.149q22.126-14.382,44.256-28.766-1.107-2.212-2.213-4.426c-86.162-32.547-96.386,38.248-168.171,50.894v-6.638L929.922,734.06c43.942-10.514,55.549,26.251,84.088,33.191l79.66-2.212q47.565,11.063,95.15,22.127c135.71,53.181,262.01,164.253,318.64,296.514,14.54,33.97,14.18,81.9,30.98,117.28l19.91-2.22v-2.21c-24.6-159.38-130.4-280.822-238.98-358.47-35.85-25.636-88.37-41.977-119.49-73.021-0.59-22.656,4.49-28.058,13.28-39.83,58.66,0.751,102.72,50.455,139.4,77.447,83.42,61.379,162.48,143.249,205.79,243.4q23.235,77.445,46.47,154.9h19.91q-22.125-73.02-44.25-146.05c-57.99-137.546-163.86-239.5-285.45-314.212q-50.9-32.082-101.79-64.17c-0.98,89.987-146.36,99.831-203.573,53.106C972.705,715.783,974,695.22,965.327,672.1Zm258.893,75.234q-3.315,2.213-6.64,4.426l2.22,6.638c65.68,52.065,148.55,88.071,201.36,152.682q39.825,48.677,79.66,97.358,18.81,29.88,37.62,59.75C1507.67,954.733,1339.29,775.622,1224.22,747.336Zm-168.17,39.83-75.234,17.7C886.259,844.7,772.775,985.793,759.538,1108.02h2.213C769,1044.98,805.8,993.892,836.986,953.125c94.2-123.144,231.174-204.6,409.364-99.575,71.83,42.337,142.55,101.656,190.3,168.17q32.085,60.84,64.17,121.7C1443.32,974.444,1279.49,786.242,1056.05,787.166ZM668.815,999.593q27.657,2.216,55.319,4.427v28.76q-3.319,6.645-6.638,13.28-23.232-2.2-46.469-4.42-1.106-3.33-2.212-6.64V999.593Zm-68.6,11.067c-13.548,30.11-1.27,76.66-13.277,112.85-10.728,32.34-46.042,52.58-64.171,79.66H553.75c14.829-17.49,42.169-27.92,50.894-50.9q7.745-69.69,15.49-139.4Q610.177,1011.76,600.219,1010.66Zm-28.766,13.27c-10.029,12.04-12.714,52.48-6.639,66.39l11.064-2.22q2.212-30.975,4.426-61.95Zm-28.767,6.64-6.638,8.85c-7.778,10.37-5.85,29.44,4.426,35.41h6.638l8.851-2.22q1.107-21.015,2.213-42.04h-15.49Zm214.64,79.66v0Zm-33.192,90.73-6.638,8.85q-38.72,1.1-77.447,2.21c-4.689,24.11-17.05,53.83-8.852,84.08l70.809,2.22c0.312,15.54,3.918,25,8.851,35.4,1.475-1.47,2.951-2.95,4.426-4.42C707.4,1301.33,724.134,1200.96,724.134,1200.96Zm92.937,6.63c-9.537,4.24-43.878-4.74-55.32,4.43-9.835,7.88-15.593,62.31-8.851,77.45l4.426,6.63h42.042c0.37,12.81,2.5,20.1,8.852,26.56-1.847-36.42-6.983-97.31,24.34-101.79q-1.105-5.535-2.213-11.06ZM427.622,1296.1h86.3q2.212,14.385,4.426,28.77h2.213c-1.079-42.77,2.5-78.28,15.489-106.21-1.475-1.48-2.95-2.95-4.425-4.43-16.614-3.41-81.078-6.06-95.15,4.43-40.325,26.2-18.744,114.84,2.213,141.62h95.149q-2.213-2.22-4.425-4.43c-1.475-2.21-2.951-4.43-4.426-6.64q-42.038-1.11-84.085-2.21C428.186,1338.09,426.774,1318.45,427.622,1296.1Zm1210.388-2.21q1.11,12.165,2.21,24.34c1.48-.73,2.95-1.47,4.43-2.21,5.36-34.55,2.02-76.2-13.28-101.79h-77.44c17.34,37.81,13.13,92.41,2.21,132.77,1.47-.74,2.95-1.48,4.42-2.21q7.755-25.455,15.49-50.9h61.96Zm13.28-79.66c19.32,41.38,16.23,115.57-2.22,154.9q6.645-3.33,13.28-6.64C1677.72,1325.93,1696.28,1235.36,1651.29,1214.23Zm-1073.2,11.07c-13.6,17.48-28.323,35.05-22.128,66.38q8.85,2.205,17.7,4.42C575.134,1276.03,585.645,1235.17,578.091,1225.3Zm947.069,2.21q-2.22,5.535-4.43,11.06c35.75,8.84,18.5,87.61,6.64,108.43q4.425-3.315,8.85-6.64c10.87-34.85,15.39-81.07-2.21-112.85h-8.85Zm-787.749,11.06c-1.872,15.03-8.37,36.31-2.213,50.9Q736.3,1264.015,737.411,1238.57Zm181.447,0c-8.3,5.02-10.887,4.13-15.489,13.28-4.766,13.96-3.754,33.51,6.638,39.83,12.259,6.38,31.587,4.49,44.256,0l4.425-46.47q-3.318-3.315-6.638-6.64H918.858Zm493.452,0q-4.425,2.22-8.85,4.43,2.2,25.44,4.42,50.89,19.92-1.11,39.83-2.21,4.425-2.22,8.85-4.43c1.4-17.09,5.55-36.09-6.64-44.25C1441.43,1238.08,1426.71,1238.1,1412.31,1238.57Zm-577.537,6.64c-5.149,19.27-6.715,37.12-2.213,57.53H839.2c3.264-11.71,8.346-36.95,2.213-50.89C837.871,1245.88,840.66,1248.8,834.773,1245.21Zm19.915,11.06v28.77q15.488-1.11,30.979-2.21v-26.56H854.688Zm533.282,2.22h-416v22.13H1387.97v-22.13Zm88.51-2.22c-4.86,7.89-4.63,18.08-2.21,28.77,15.02,2.44,36.81,3.58,48.68-2.21q-1.11-12.165-2.22-24.34Zm219.06,0,2.22,57.54h2.21q5.535-3.33,11.06-6.64v-42.04c-3.08-4.26-.22-1.33-4.42-4.43Q1701.075,1258.495,1695.54,1256.27Zm-847.49,61.96q-2.214,3.33-4.426,6.64v2.21h44.255q-1.106-4.425-2.212-8.85H848.05Zm123.915,0c2.018,8.08-.084,4.53,4.426,8.85l411.579,2.22-2.22-11.07H971.965Zm497.875,0q-1.11,3.33-2.21,6.64c1.47,0.74,2.95,1.48,4.42,2.21h50.9v-2.21q-1.11-3.315-2.22-6.64h-50.89Zm-513.364,13.28H903.369q3.318,6.63,6.638,13.28l46.469-2.22v-11.06Zm497.874,0h-50.89q2.2,6.63,4.42,13.28c16.94,1.3,30.44,1.12,46.47-2.22v-11.06ZM757.326,1347q1.105,4.425,2.212,8.85,27.657,1.11,55.32,2.21-2.212-5.52-4.426-11.06H757.326Zm-115.065,11.06q3.32,7.755,6.639,15.49h81.872q-1.106-3.315-2.212-6.64l-6.639-8.85h-79.66Zm909.449,2.22-8.85,15.48c29.81,1.12,70.57,5.15,84.09-11.06v-2.21c-0.74-.74-1.48-1.48-2.22-2.21h-73.02Zm-1057.7,42.04q-54.207,43.14-108.426,86.3c15.361,30.87,53.627,93.74,110.639,73.02C567.668,1535.67,549.85,1432.15,494.005,1402.32Zm1152.855,6.64q-11.055,15.48-22.13,30.98,40.935,67.47,81.88,134.97l17.7-15.48q4.425-6.645,8.85-13.28c-22.93-23.74-7.45-48.61,15.49-66.38,15.64,2.58,22.37,8.48,33.19,4.42q8.85-15.48,17.7-30.98ZM489.58,1448.79c17.869,5.1,31.741,34.31,22.128,53.1-16.043,44.22-65.935,27.87-81.873-4.42Q459.7,1473.125,489.58,1448.79Zm1179.41,0q22.125,9.945,44.25,19.91c-1.47,1.48-2.95,2.95-4.42,4.43q-7.74,11.055-15.49,22.12ZM580.3,1506.32q-49.783,51.99-99.575,104l26.553,26.55,97.362-106.21Q592.474,1518.5,580.3,1506.32Zm997.966,0c-24.3,16.16-47.01,34.49-64.17,57.53l8.85,8.85,88.51,97.36q13.275-11.055,26.55-22.12l-35.4-37.62,8.85-8.85q29.865,6.63,59.74,13.27,11.07-13.275,22.13-26.55h-4.43q-26.55-5.535-53.1-11.06v-6.64C1651.94,1531.11,1621.08,1503.9,1578.27,1506.32Zm4.42,30.98q5.535,1.1,11.06,2.21,6.645,4.425,13.28,8.85v15.49c-6.6,10.3-14.5,17.39-24.34,24.34h-4.42q-11.07-15.48-22.13-30.98Q1569.415,1547.25,1582.69,1537.3ZM613.5,1559.43c-66.878,46.11,3.327,65.56-2.213,112.85H595.793c-25.515-12.82-7.529-22.5-19.915-37.62l-26.553-8.85h-2.213c-0.738.74-1.475,1.47-2.213,2.21-3.91,40.15,40.657,107.03,86.3,73.02,43.681-32.54-7.877-70.98-13.276-104,0.737-1.47,1.475-2.95,2.213-4.42H633.41q6.638,5.52,13.277,11.06,2.212,11.07,4.425,22.13,14.382,3.315,28.767,6.64C686.693,1589.85,656.731,1558.62,613.5,1559.43Zm858.555,35.4c-22.73,10.25-43.19,17.31-55.32,37.62-30.39,50.87,15.2,126.33,75.24,115.06C1582.71,1730.48,1576.41,1591.64,1472.05,1594.83Zm-772.256,15.49q-6.639,14.385-13.277,28.77,14.382,6.63,28.766,13.27c-7.795,35.22-49.166,70.42-46.468,104q14.38,6.645,28.766,13.28,24.337-48.675,48.681-97.36c15.38,2.96,22.6,12.15,35.4,11.06q5.532-11.055,11.064-22.13Q746.266,1635.77,699.794,1610.32Zm774.476,17.7c32.13-.45,63.81,30.2,46.46,61.96-6.36,16.66-19.15,24.19-42.04,24.34-22.81-8.56-36.38-20.77-37.62-50.89C1449.18,1642.94,1456.92,1638.89,1474.27,1628.02Zm-670.476,35.41q-22.125,67.47-44.256,134.98,16.594,5.52,33.192,11.06,5.532-22.125,11.064-44.26l15.489,2.22q6.639,28.755,13.277,57.53l35.4,8.85v-2.21q-7.743-27.66-15.489-55.32c24.953-13.38,42.357-16.47,44.256-53.11C882.405,1686.29,845.95,1670.79,803.794,1663.43Zm528.856,4.42q-32.085,11.07-64.17,22.13,23.22,68.6,46.47,137.19c30.44-12.16,74.64-22.04,90.72-48.68C1438.85,1723.5,1390.62,1666.05,1332.65,1667.85Zm-81.88,26.55q-15.48,5.535-30.97,11.07,14.37,68.58,28.76,137.19h6.64q13.275-3.315,26.55-6.64Q1266.27,1765.22,1250.77,1694.4Zm-327.486,4.43-30.979,141.62q16.595,3.315,33.192,6.64l2.212-2.22q13.277-69.69,26.554-139.4h-4.426Q936.562,1702.155,923.284,1698.83Zm411.576,0c17.65,0.78,25.07,6.04,35.4,13.28,4.97,13.38,8.9,21.32,8.86,42.04-8.22,17.18-20.2,27.48-44.26,28.77q-12.165-37.62-24.34-75.24Q1322.685,1703.255,1334.86,1698.83Zm-506.725,2.21c15.664,2.36,25.1,8.32,35.4,15.49,0.108,14.23-2,18.61-6.638,26.56-15.315,2.82-25.358-1.49-39.83-4.43v-8.85Q822.6,1715.425,828.135,1701.04Zm261.105,15.49c-1.04,61.53-1.99,154.57,70.81,141.62,61.86-11,61.46-89.54,42.04-152.68h-2.21q-15.48,2.205-30.98,4.42c5.76,37.19,17.16,90.28-4.42,115.07-17.02.81-25.07-.66-30.98-11.07q-6.645-49.77-13.28-99.57Q1104.74,1715.43,1089.24,1716.53Zm-117.275-8.85q-5.532,71.91-11.064,143.83c57.389,10.07,163.289-1.09,95.149-66.38,12.46-15.79,17.99-28.12,11.06-53.11C1043.13,1714.45,1011.07,1712.5,971.965,1707.68Zm28.765,61.96q1.11-15.5,2.21-30.98c14.18,0.77,26.71,3.46,35.41,8.85q-1.11,7.74-2.21,15.49c-4.15,5.65-6.57,5.82-13.28,8.85Q1011.79,1770.74,1000.73,1769.64Zm-2.212,26.55c17.752-.67,29.692,1.08,39.832,6.64v15.49q-3.315,5.535-6.64,11.06-17.7-1.1-35.405-2.21Q997.412,1811.69,998.518,1796.19Z"/>
</svg>
